<mxfile host="app.diagrams.net" modified="2023-04-23T17:47:16.391Z" agent="Mozilla/5.0 (Windows NT 10.0; Win64; x64) AppleWebKit/537.36 (KHTML, like Gecko) Chrome/110.0.0.0 YaBrowser/23.3.2.810 Yowser/2.5 Safari/537.36" etag="GCEez2NF9wl9jk8f0EqN" version="21.2.1" type="github">
  <diagram name="Page-1" id="e7e014a7-5840-1c2e-5031-d8a46d1fe8dd">
    <mxGraphModel dx="1050" dy="614" grid="1" gridSize="10" guides="1" tooltips="1" connect="1" arrows="1" fold="1" page="1" pageScale="1" pageWidth="1169" pageHeight="826" background="none" math="0" shadow="0">
      <root>
        <mxCell id="0" />
        <mxCell id="1" parent="0" />
        <mxCell id="2" value="поступающий" style="swimlane;whiteSpace=wrap" parent="1" vertex="1">
          <mxGeometry x="164.5" y="128" width="280" height="862" as="geometry" />
        </mxCell>
        <mxCell id="8AVhBNLxLf88ExCwK8Bf-46" style="edgeStyle=orthogonalEdgeStyle;rounded=0;orthogonalLoop=1;jettySize=auto;html=1;exitX=0.5;exitY=1;exitDx=0;exitDy=0;" edge="1" parent="2" source="5" target="8AVhBNLxLf88ExCwK8Bf-45">
          <mxGeometry relative="1" as="geometry" />
        </mxCell>
        <mxCell id="5" value="" style="ellipse;shape=startState;fillColor=#000000;strokeColor=#ff0000;" parent="2" vertex="1">
          <mxGeometry x="125" y="62" width="30" height="30" as="geometry" />
        </mxCell>
        <mxCell id="12" value="" style="edgeStyle=elbowEdgeStyle;elbow=horizontal;strokeColor=#FF0000;endArrow=open;endFill=1;rounded=0" parent="2" source="10" edge="1">
          <mxGeometry width="100" height="100" relative="1" as="geometry">
            <mxPoint x="160" y="290" as="sourcePoint" />
            <mxPoint x="60" y="135" as="targetPoint" />
            <Array as="points">
              <mxPoint x="30" y="250" />
            </Array>
          </mxGeometry>
        </mxCell>
        <mxCell id="8AVhBNLxLf88ExCwK8Bf-49" style="edgeStyle=orthogonalEdgeStyle;rounded=0;orthogonalLoop=1;jettySize=auto;html=1;exitX=0.5;exitY=1;exitDx=0;exitDy=0;entryX=0.5;entryY=0;entryDx=0;entryDy=0;" edge="1" parent="2" source="8AVhBNLxLf88ExCwK8Bf-45" target="8AVhBNLxLf88ExCwK8Bf-47">
          <mxGeometry relative="1" as="geometry" />
        </mxCell>
        <mxCell id="8AVhBNLxLf88ExCwK8Bf-45" value="указать в заявке достижения,&lt;br&gt;данные и&amp;nbsp; прикрепить сканы документов&amp;nbsp;" style="rounded=0;whiteSpace=wrap;html=1;" vertex="1" parent="2">
          <mxGeometry x="52.75" y="112" width="174.5" height="58" as="geometry" />
        </mxCell>
        <mxCell id="8AVhBNLxLf88ExCwK8Bf-43" value="открыть страницу подачи заявок" style="text;html=1;strokeColor=none;fillColor=none;align=center;verticalAlign=middle;whiteSpace=wrap;rounded=0;" vertex="1" parent="2">
          <mxGeometry x="52.75" y="32" width="180" height="30" as="geometry" />
        </mxCell>
        <mxCell id="8AVhBNLxLf88ExCwK8Bf-47" value="отправить на согласование" style="rounded=0;whiteSpace=wrap;html=1;" vertex="1" parent="2">
          <mxGeometry x="50" y="202" width="180" height="38" as="geometry" />
        </mxCell>
        <mxCell id="8AVhBNLxLf88ExCwK8Bf-57" style="edgeStyle=orthogonalEdgeStyle;rounded=0;orthogonalLoop=1;jettySize=auto;html=1;exitX=0;exitY=0.5;exitDx=0;exitDy=0;entryX=0;entryY=0.5;entryDx=0;entryDy=0;" edge="1" parent="2" source="8AVhBNLxLf88ExCwK8Bf-55" target="8AVhBNLxLf88ExCwK8Bf-47">
          <mxGeometry relative="1" as="geometry" />
        </mxCell>
        <mxCell id="8AVhBNLxLf88ExCwK8Bf-55" value="доработать заявку" style="rounded=0;whiteSpace=wrap;html=1;" vertex="1" parent="2">
          <mxGeometry x="65.5" y="302" width="120" height="60" as="geometry" />
        </mxCell>
        <mxCell id="8AVhBNLxLf88ExCwK8Bf-77" style="edgeStyle=orthogonalEdgeStyle;rounded=0;orthogonalLoop=1;jettySize=auto;html=1;exitX=0.5;exitY=1;exitDx=0;exitDy=0;entryX=0.5;entryY=0;entryDx=0;entryDy=0;" edge="1" parent="2" source="8AVhBNLxLf88ExCwK8Bf-74" target="8AVhBNLxLf88ExCwK8Bf-76">
          <mxGeometry relative="1" as="geometry" />
        </mxCell>
        <mxCell id="8AVhBNLxLf88ExCwK8Bf-74" value="Привезти оригиналы документов" style="rounded=0;whiteSpace=wrap;html=1;" vertex="1" parent="2">
          <mxGeometry x="82.75" y="506" width="120" height="60" as="geometry" />
        </mxCell>
        <mxCell id="8AVhBNLxLf88ExCwK8Bf-76" value="Отдать оригиналы и подписать все нужные договоры" style="rounded=0;whiteSpace=wrap;html=1;" vertex="1" parent="2">
          <mxGeometry x="80.5" y="592" width="120" height="60" as="geometry" />
        </mxCell>
        <mxCell id="3" value="член приёмной кампания" style="swimlane;whiteSpace=wrap;startSize=23;" parent="1" vertex="1">
          <mxGeometry x="444.5" y="128" width="280" height="862" as="geometry" />
        </mxCell>
        <mxCell id="38" value="" style="ellipse;shape=endState;fillColor=#000000;strokeColor=#ff0000" parent="3" vertex="1">
          <mxGeometry x="135.5" y="812" width="30" height="30" as="geometry" />
        </mxCell>
        <mxCell id="8AVhBNLxLf88ExCwK8Bf-51" value="данные корректны?" style="html=1;whiteSpace=wrap;aspect=fixed;shape=isoRectangle;" vertex="1" parent="3">
          <mxGeometry x="66.5" y="52" width="146.67" height="88" as="geometry" />
        </mxCell>
        <mxCell id="8AVhBNLxLf88ExCwK8Bf-58" value="Нет" style="text;html=1;strokeColor=none;fillColor=none;align=center;verticalAlign=middle;whiteSpace=wrap;rounded=0;" vertex="1" parent="3">
          <mxGeometry x="25.5" y="62" width="60" height="30" as="geometry" />
        </mxCell>
        <mxCell id="8AVhBNLxLf88ExCwK8Bf-59" value="Да" style="text;html=1;strokeColor=none;fillColor=none;align=center;verticalAlign=middle;whiteSpace=wrap;rounded=0;" vertex="1" parent="3">
          <mxGeometry x="145.5" y="140" width="60" height="30" as="geometry" />
        </mxCell>
        <mxCell id="8AVhBNLxLf88ExCwK8Bf-60" value="подсчитать кол-во балов и занести участника и внести его в общую базу" style="rounded=0;whiteSpace=wrap;html=1;" vertex="1" parent="3">
          <mxGeometry x="42.5" y="202" width="194.5" height="60" as="geometry" />
        </mxCell>
        <mxCell id="8AVhBNLxLf88ExCwK8Bf-67" style="edgeStyle=orthogonalEdgeStyle;rounded=0;orthogonalLoop=1;jettySize=auto;html=1;exitX=0;exitY=0.5;exitDx=0;exitDy=0;" edge="1" parent="3" source="8AVhBNLxLf88ExCwK8Bf-63">
          <mxGeometry relative="1" as="geometry">
            <mxPoint x="145.5" y="312" as="targetPoint" />
            <Array as="points">
              <mxPoint x="56" y="352" />
              <mxPoint x="56" y="292" />
              <mxPoint x="140" y="292" />
              <mxPoint x="140" y="332" />
              <mxPoint x="146" y="332" />
            </Array>
          </mxGeometry>
        </mxCell>
        <mxCell id="8AVhBNLxLf88ExCwK8Bf-70" style="edgeStyle=orthogonalEdgeStyle;rounded=0;orthogonalLoop=1;jettySize=auto;html=1;exitX=0.5;exitY=1;exitDx=0;exitDy=0;entryX=0.5;entryY=0;entryDx=0;entryDy=0;" edge="1" parent="3" source="8AVhBNLxLf88ExCwK8Bf-63" target="8AVhBNLxLf88ExCwK8Bf-69">
          <mxGeometry relative="1" as="geometry" />
        </mxCell>
        <mxCell id="8AVhBNLxLf88ExCwK8Bf-63" value="приём заявок закончен?" style="rhombus;whiteSpace=wrap;html=1;" vertex="1" parent="3">
          <mxGeometry x="53" y="312" width="173.5" height="80" as="geometry" />
        </mxCell>
        <mxCell id="8AVhBNLxLf88ExCwK8Bf-68" value="Нет" style="text;html=1;strokeColor=none;fillColor=none;align=center;verticalAlign=middle;whiteSpace=wrap;rounded=0;" vertex="1" parent="3">
          <mxGeometry x="15.5" y="346" width="60" height="30" as="geometry" />
        </mxCell>
        <mxCell id="8AVhBNLxLf88ExCwK8Bf-73" style="edgeStyle=orthogonalEdgeStyle;rounded=0;orthogonalLoop=1;jettySize=auto;html=1;exitX=0.5;exitY=1;exitDx=0;exitDy=0;entryX=0.5;entryY=0;entryDx=0;entryDy=0;" edge="1" parent="3" source="8AVhBNLxLf88ExCwK8Bf-69" target="8AVhBNLxLf88ExCwK8Bf-72">
          <mxGeometry relative="1" as="geometry" />
        </mxCell>
        <mxCell id="8AVhBNLxLf88ExCwK8Bf-69" value="Участник прошёл по кол-ву баллов?" style="rhombus;whiteSpace=wrap;html=1;" vertex="1" parent="3">
          <mxGeometry x="18.13" y="412" width="244.75" height="80" as="geometry" />
        </mxCell>
        <mxCell id="8AVhBNLxLf88ExCwK8Bf-71" value="Да" style="text;html=1;strokeColor=none;fillColor=none;align=center;verticalAlign=middle;whiteSpace=wrap;rounded=0;" vertex="1" parent="3">
          <mxGeometry x="135.5" y="392" width="60" height="30" as="geometry" />
        </mxCell>
        <mxCell id="8AVhBNLxLf88ExCwK8Bf-72" value="Оповестить об этом участника и запросить оригиналы документов" style="rounded=0;whiteSpace=wrap;html=1;" vertex="1" parent="3">
          <mxGeometry x="47.5" y="512" width="189.5" height="48" as="geometry" />
        </mxCell>
        <mxCell id="8AVhBNLxLf88ExCwK8Bf-53" style="edgeStyle=orthogonalEdgeStyle;rounded=0;orthogonalLoop=1;jettySize=auto;html=1;exitX=1;exitY=0.5;exitDx=0;exitDy=0;entryX=0.511;entryY=0.009;entryDx=0;entryDy=0;entryPerimeter=0;" edge="1" parent="1" source="8AVhBNLxLf88ExCwK8Bf-47" target="8AVhBNLxLf88ExCwK8Bf-51">
          <mxGeometry relative="1" as="geometry">
            <Array as="points">
              <mxPoint x="430" y="349" />
              <mxPoint x="430" y="160" />
              <mxPoint x="586" y="160" />
            </Array>
          </mxGeometry>
        </mxCell>
        <mxCell id="8AVhBNLxLf88ExCwK8Bf-54" value="" style="endArrow=classic;html=1;rounded=0;exitX=0.5;exitY=0.982;exitDx=0;exitDy=0;exitPerimeter=0;" edge="1" parent="1" source="8AVhBNLxLf88ExCwK8Bf-51">
          <mxGeometry width="50" height="50" relative="1" as="geometry">
            <mxPoint x="640" y="400" as="sourcePoint" />
            <mxPoint x="584" y="320" as="targetPoint" />
          </mxGeometry>
        </mxCell>
        <mxCell id="8AVhBNLxLf88ExCwK8Bf-56" value="" style="edgeStyle=orthogonalEdgeStyle;rounded=0;orthogonalLoop=1;jettySize=auto;html=1;entryX=1;entryY=0.5;entryDx=0;entryDy=0;" edge="1" parent="1" source="8AVhBNLxLf88ExCwK8Bf-51" target="8AVhBNLxLf88ExCwK8Bf-55">
          <mxGeometry relative="1" as="geometry">
            <Array as="points">
              <mxPoint x="480" y="224" />
              <mxPoint x="480" y="460" />
            </Array>
          </mxGeometry>
        </mxCell>
        <mxCell id="8AVhBNLxLf88ExCwK8Bf-61" value="" style="endArrow=classic;html=1;rounded=0;exitX=0.5;exitY=1;exitDx=0;exitDy=0;" edge="1" parent="1" source="8AVhBNLxLf88ExCwK8Bf-60">
          <mxGeometry width="50" height="50" relative="1" as="geometry">
            <mxPoint x="640" y="490" as="sourcePoint" />
            <mxPoint x="584" y="440" as="targetPoint" />
          </mxGeometry>
        </mxCell>
        <mxCell id="8AVhBNLxLf88ExCwK8Bf-75" style="edgeStyle=orthogonalEdgeStyle;rounded=0;orthogonalLoop=1;jettySize=auto;html=1;exitX=0;exitY=0.5;exitDx=0;exitDy=0;" edge="1" parent="1" source="8AVhBNLxLf88ExCwK8Bf-72" target="8AVhBNLxLf88ExCwK8Bf-74">
          <mxGeometry relative="1" as="geometry" />
        </mxCell>
      </root>
    </mxGraphModel>
  </diagram>
</mxfile>
